solid ascii
  facet normal 7.071068e-001 0.000000e+000 7.071068e-001
    outer loop
      vertex   -1.350000e+001 1.300000e+001 8.300001e+000
      vertex   -1.370000e+001 1.300000e+001 8.500001e+000
      vertex   -1.350000e+001 1.000000e+001 8.300001e+000
    endloop
  endfacet
  facet normal 7.071068e-001 0.000000e+000 7.071068e-001
    outer loop
      vertex   -1.350000e+001 1.000000e+001 8.300001e+000
      vertex   -1.370000e+001 1.300000e+001 8.500001e+000
      vertex   -1.370000e+001 1.000000e+001 8.500001e+000
    endloop
  endfacet
  facet normal 1.000000e+000 0.000000e+000 0.000000e+000
    outer loop
      vertex   -1.350000e+001 1.300000e+001 8.300001e+000
      vertex   -1.350000e+001 1.000000e+001 8.300001e+000
      vertex   -1.350000e+001 1.300000e+001 8.000001e+000
    endloop
  endfacet
  facet normal 1.000000e+000 0.000000e+000 0.000000e+000
    outer loop
      vertex   -1.350000e+001 1.300000e+001 8.000001e+000
      vertex   -1.350000e+001 1.000000e+001 8.300001e+000
      vertex   -1.350000e+001 1.000000e+001 8.000001e+000
    endloop
  endfacet
  facet normal 0.000000e+000 -1.000000e+000 -0.000000e+000
    outer loop
      vertex   -1.370000e+001 1.000000e+001 8.500001e+000
      vertex   -1.393744e+001 1.000000e+001 8.282762e+000
      vertex   -1.350000e+001 1.000000e+001 8.300001e+000
    endloop
  endfacet
  facet normal 0.000000e+000 -1.000000e+000 -0.000000e+000
    outer loop
      vertex   -1.370000e+001 1.000000e+001 8.500001e+000
      vertex   -1.433724e+001 1.000000e+001 8.282762e+000
      vertex   -1.393744e+001 1.000000e+001 8.282762e+000
    endloop
  endfacet
  facet normal -0.000000e+000 -1.000000e+000 -0.000000e+000
    outer loop
      vertex   -1.370000e+001 1.000000e+001 8.500001e+000
      vertex   -1.500000e+001 1.000000e+001 8.500001e+000
      vertex   -1.433724e+001 1.000000e+001 8.282762e+000
    endloop
  endfacet
  facet normal -0.000000e+000 -1.000000e+000 0.000000e+000
    outer loop
      vertex   -1.433724e+001 1.000000e+001 8.282762e+000
      vertex   -1.500000e+001 1.000000e+001 8.500001e+000
      vertex   -1.500000e+001 1.000000e+001 8.000000e+000
    endloop
  endfacet
  facet normal -0.000000e+000 -1.000000e+000 0.000000e+000
    outer loop
      vertex   -1.433724e+001 1.000000e+001 8.000001e+000
      vertex   -1.433724e+001 1.000000e+001 8.282762e+000
      vertex   -1.500000e+001 1.000000e+001 8.000000e+000
    endloop
  endfacet
  facet normal 0.000000e+000 -1.000000e+000 0.000000e+000
    outer loop
      vertex   -1.393744e+001 1.000000e+001 8.282762e+000
      vertex   -1.365468e+001 1.000000e+001 8.000001e+000
      vertex   -1.350000e+001 1.000000e+001 8.300001e+000
    endloop
  endfacet
  facet normal 0.000000e+000 -1.000000e+000 -0.000000e+000
    outer loop
      vertex   -1.350000e+001 1.000000e+001 8.300001e+000
      vertex   -1.365468e+001 1.000000e+001 8.000001e+000
      vertex   -1.350000e+001 1.000000e+001 8.000001e+000
    endloop
  endfacet
  facet normal -7.071068e-001 0.000000e+000 7.071068e-001
    outer loop
      vertex   -7.800000e+000 1.000000e+001 8.300000e+000
      vertex   -7.600000e+000 1.000000e+001 8.500000e+000
      vertex   -7.800000e+000 1.300000e+001 8.300000e+000
    endloop
  endfacet
  facet normal -7.071068e-001 0.000000e+000 7.071068e-001
    outer loop
      vertex   -7.800000e+000 1.300000e+001 8.300000e+000
      vertex   -7.600000e+000 1.000000e+001 8.500000e+000
      vertex   -7.600000e+000 1.300000e+001 8.500000e+000
    endloop
  endfacet
  facet normal 0.000000e+000 -0.000000e+000 1.000000e+000
    outer loop
      vertex   -7.600000e+000 1.000000e+001 8.500000e+000
      vertex   -6.300000e+000 1.000000e+001 8.500000e+000
      vertex   -7.600000e+000 1.300000e+001 8.500000e+000
    endloop
  endfacet
  facet normal -0.000000e+000 0.000000e+000 1.000000e+000
    outer loop
      vertex   -7.600000e+000 1.300000e+001 8.500000e+000
      vertex   -6.300000e+000 1.000000e+001 8.500000e+000
      vertex   -6.300000e+000 1.300000e+001 8.500000e+000
    endloop
  endfacet
  facet normal 0.000000e+000 -1.000000e+000 0.000000e+000
    outer loop
      vertex   -7.800000e+000 1.000000e+001 8.300000e+000
      vertex   -7.337239e+000 1.000000e+001 8.282762e+000
      vertex   -7.600000e+000 1.000000e+001 8.500000e+000
    endloop
  endfacet
  facet normal 0.000000e+000 -1.000000e+000 0.000000e+000
    outer loop
      vertex   -7.800000e+000 1.000000e+001 8.300000e+000
      vertex   -7.620000e+000 1.000000e+001 8.000001e+000
      vertex   -7.337239e+000 1.000000e+001 8.282762e+000
    endloop
  endfacet
  facet normal 0.000000e+000 -1.000000e+000 0.000000e+000
    outer loop
      vertex   -7.800000e+000 1.000000e+001 8.300000e+000
      vertex   -7.800000e+000 1.000000e+001 8.000000e+000
      vertex   -7.620000e+000 1.000000e+001 8.000001e+000
    endloop
  endfacet
  facet normal 0.000000e+000 -1.000000e+000 0.000000e+000
    outer loop
      vertex   -7.337239e+000 1.000000e+001 8.282762e+000
      vertex   -6.937441e+000 1.000000e+001 8.282762e+000
      vertex   -7.600000e+000 1.000000e+001 8.500000e+000
    endloop
  endfacet
  facet normal 0.000000e+000 -1.000000e+000 0.000000e+000
    outer loop
      vertex   -7.600000e+000 1.000000e+001 8.500000e+000
      vertex   -6.937441e+000 1.000000e+001 8.282762e+000
      vertex   -6.300000e+000 1.000000e+001 8.500000e+000
    endloop
  endfacet
  facet normal 0.000000e+000 -1.000000e+000 -0.000000e+000
    outer loop
      vertex   -6.300000e+000 1.000000e+001 8.500000e+000
      vertex   -6.937441e+000 1.000000e+001 8.282762e+000
      vertex   -6.300000e+000 1.000000e+001 8.000000e+000
    endloop
  endfacet
  facet normal -0.000000e+000 -1.000000e+000 -0.000000e+000
    outer loop
      vertex   -6.300000e+000 1.000000e+001 8.000000e+000
      vertex   -6.937441e+000 1.000000e+001 8.282762e+000
      vertex   -6.937441e+000 1.000000e+001 8.000001e+000
    endloop
  endfacet
  facet normal 7.071068e-001 0.000000e+000 -7.071068e-001
    outer loop
      vertex   -7.620000e+000 1.300000e+001 8.000001e+000
      vertex   -7.337239e+000 1.300000e+001 8.282762e+000
      vertex   -7.620000e+000 1.000000e+001 8.000001e+000
    endloop
  endfacet
  facet normal 7.071068e-001 0.000000e+000 -7.071068e-001
    outer loop
      vertex   -7.620000e+000 1.000000e+001 8.000001e+000
      vertex   -7.337239e+000 1.300000e+001 8.282762e+000
      vertex   -7.337239e+000 1.000000e+001 8.282762e+000
    endloop
  endfacet
  facet normal 0.000000e+000 -0.000000e+000 -1.000000e+000
    outer loop
      vertex   -7.337239e+000 1.300000e+001 8.282762e+000
      vertex   -6.937441e+000 1.300000e+001 8.282762e+000
      vertex   -7.337239e+000 1.000000e+001 8.282762e+000
    endloop
  endfacet
  facet normal 0.000000e+000 0.000000e+000 -1.000000e+000
    outer loop
      vertex   -7.337239e+000 1.000000e+001 8.282762e+000
      vertex   -6.937441e+000 1.300000e+001 8.282762e+000
      vertex   -6.937441e+000 1.000000e+001 8.282762e+000
    endloop
  endfacet
  facet normal -1.000000e+000 -0.000000e+000 -0.000000e+000
    outer loop
      vertex   -6.937441e+000 1.300000e+001 8.282762e+000
      vertex   -6.937441e+000 1.300000e+001 8.000001e+000
      vertex   -6.937441e+000 1.000000e+001 8.282762e+000
    endloop
  endfacet
  facet normal -1.000000e+000 -0.000000e+000 -0.000000e+000
    outer loop
      vertex   -6.937441e+000 1.000000e+001 8.282762e+000
      vertex   -6.937441e+000 1.300000e+001 8.000001e+000
      vertex   -6.937441e+000 1.000000e+001 8.000001e+000
    endloop
  endfacet
  facet normal 3.311369e-006 0.000000e+000 -1.000000e+000
    outer loop
      vertex   -7.620000e+000 1.000000e+001 8.000001e+000
      vertex   -7.800000e+000 1.000000e+001 8.000000e+000
      vertex   -7.620000e+000 1.300000e+001 8.000001e+000
    endloop
  endfacet
  facet normal 3.311369e-006 0.000000e+000 -1.000000e+000
    outer loop
      vertex   -7.620000e+000 1.300000e+001 8.000001e+000
      vertex   -7.800000e+000 1.000000e+001 8.000000e+000
      vertex   -7.800000e+000 1.300000e+001 8.000000e+000
    endloop
  endfacet
  facet normal 1.028568e-006 2.057135e-007 1.000000e+000
    outer loop
      vertex   -6.300000e+000 1.300000e+001 8.000000e+000
      vertex   -7.300000e+000 1.800000e+001 8.000000e+000
      vertex   -6.937441e+000 1.300000e+001 8.000001e+000
    endloop
  endfacet
  facet normal 0.000000e+000 -0.000000e+000 1.000000e+000
    outer loop
      vertex   -6.300000e+000 1.300000e+001 8.000000e+000
      vertex   -5.300000e+000 1.800000e+001 8.000000e+000
      vertex   -7.300000e+000 1.800000e+001 8.000000e+000
    endloop
  endfacet
  facet normal -0.000000e+000 0.000000e+000 1.000000e+000
    outer loop
      vertex   -6.300000e+000 1.300000e+001 8.000000e+000
      vertex   -5.300000e+000 5.000000e+000 8.000000e+000
      vertex   -5.300000e+000 1.800000e+001 8.000000e+000
    endloop
  endfacet
  facet normal 0.000000e+000 0.000000e+000 1.000000e+000
    outer loop
      vertex   -6.300000e+000 1.300000e+001 8.000000e+000
      vertex   -6.300000e+000 1.000000e+001 8.000000e+000
      vertex   -5.300000e+000 5.000000e+000 8.000000e+000
    endloop
  endfacet
  facet normal 0.000000e+000 0.000000e+000 1.000000e+000
    outer loop
      vertex   -5.300000e+000 5.000000e+000 8.000000e+000
      vertex   -6.300000e+000 1.000000e+001 8.000000e+000
      vertex   -7.300000e+000 5.000000e+000 8.000000e+000
    endloop
  endfacet
  facet normal 1.028568e-006 -2.057135e-007 1.000000e+000
    outer loop
      vertex   -7.300000e+000 5.000000e+000 8.000000e+000
      vertex   -6.300000e+000 1.000000e+001 8.000000e+000
      vertex   -6.937441e+000 1.000000e+001 8.000001e+000
    endloop
  endfacet
  facet normal -1.808398e-006 0.000000e+000 1.000000e+000
    outer loop
      vertex   -6.937441e+000 1.300000e+001 8.000001e+000
      vertex   -7.300000e+000 5.000000e+000 8.000000e+000
      vertex   -6.937441e+000 1.000000e+001 8.000001e+000
    endloop
  endfacet
  facet normal -1.808398e-006 0.000000e+000 1.000000e+000
    outer loop
      vertex   -6.937441e+000 1.300000e+001 8.000001e+000
      vertex   -7.300000e+000 1.800000e+001 8.000000e+000
      vertex   -7.300000e+000 5.000000e+000 8.000000e+000
    endloop
  endfacet
  facet normal -0.000000e+000 -1.000000e+000 -0.000000e+000
    outer loop
      vertex   -1.400000e+001 1.330000e+001 8.000000e+000
      vertex   -1.433176e+001 1.330000e+001 8.000000e+000
      vertex   -1.400000e+001 1.330000e+001 7.999960e+000
    endloop
  endfacet
  facet normal 0.000000e+000 1.000000e+000 0.000000e+000
    outer loop
      vertex   -1.400000e+001 1.000000e+001 8.000000e+000
      vertex   -1.400000e+001 1.000000e+001 7.999960e+000
      vertex   -1.433724e+001 1.000000e+001 8.000001e+000
    endloop
  endfacet
  facet normal -7.071068e-001 0.000000e+000 -7.071068e-001
    outer loop
      vertex   -1.365468e+001 1.000000e+001 8.000001e+000
      vertex   -1.393744e+001 1.000000e+001 8.282762e+000
      vertex   -1.365468e+001 1.300000e+001 8.000001e+000
    endloop
  endfacet
  facet normal -7.071068e-001 0.000000e+000 -7.071068e-001
    outer loop
      vertex   -1.365468e+001 1.300000e+001 8.000001e+000
      vertex   -1.393744e+001 1.000000e+001 8.282762e+000
      vertex   -1.393744e+001 1.300000e+001 8.282762e+000
    endloop
  endfacet
  facet normal 1.197495e-004 1.196183e-015 1.000000e+000
    outer loop
      vertex   -1.433176e+001 1.330000e+001 8.000000e+000
      vertex   -1.433176e+001 1.300000e+001 8.000000e+000
      vertex   -1.400000e+001 1.330000e+001 7.999960e+000
    endloop
  endfacet
  facet normal 1.197495e-004 0.000000e+000 1.000000e+000
    outer loop
      vertex   -1.400000e+001 1.330000e+001 7.999960e+000
      vertex   -1.433176e+001 1.300000e+001 8.000000e+000
      vertex   -1.400000e+001 1.000000e+001 7.999960e+000
    endloop
  endfacet
  facet normal 1.197495e-004 2.841274e-017 1.000000e+000
    outer loop
      vertex   -1.400000e+001 1.000000e+001 7.999960e+000
      vertex   -1.433176e+001 1.300000e+001 8.000000e+000
      vertex   -1.433724e+001 1.000000e+001 8.000001e+000
    endloop
  endfacet
  facet normal 1.197495e-004 0.000000e+000 1.000000e+000
    outer loop
      vertex   -1.433724e+001 1.000000e+001 8.000001e+000
      vertex   -1.433176e+001 1.300000e+001 8.000000e+000
      vertex   -1.433724e+001 1.300000e+001 8.000001e+000
    endloop
  endfacet
  facet normal 0.000000e+000 -0.000000e+000 -1.000000e+000
    outer loop
      vertex   -1.433724e+001 1.300000e+001 8.282762e+000
      vertex   -1.393744e+001 1.300000e+001 8.282762e+000
      vertex   -1.433724e+001 1.000000e+001 8.282762e+000
    endloop
  endfacet
  facet normal 0.000000e+000 0.000000e+000 -1.000000e+000
    outer loop
      vertex   -1.433724e+001 1.000000e+001 8.282762e+000
      vertex   -1.393744e+001 1.300000e+001 8.282762e+000
      vertex   -1.393744e+001 1.000000e+001 8.282762e+000
    endloop
  endfacet
  facet normal 1.000000e+000 0.000000e+000 -0.000000e+000
    outer loop
      vertex   -1.433724e+001 1.300000e+001 8.000001e+000
      vertex   -1.433724e+001 1.300000e+001 8.282762e+000
      vertex   -1.433724e+001 1.000000e+001 8.000001e+000
    endloop
  endfacet
  facet normal 1.000000e+000 0.000000e+000 -0.000000e+000
    outer loop
      vertex   -1.433724e+001 1.000000e+001 8.000001e+000
      vertex   -1.433724e+001 1.300000e+001 8.282762e+000
      vertex   -1.433724e+001 1.000000e+001 8.282762e+000
    endloop
  endfacet
  facet normal 1.000000e+000 -0.000000e+000 0.000000e+000
    outer loop
      vertex   -1.400000e+001 1.330000e+001 8.000000e+000
      vertex   -1.400000e+001 1.330000e+001 7.999960e+000
      vertex   -1.400000e+001 1.800000e+001 8.000000e+000
    endloop
  endfacet
  facet normal 1.000000e+000 0.000000e+000 0.000000e+000
    outer loop
      vertex   -1.400000e+001 1.800000e+001 8.000000e+000
      vertex   -1.400000e+001 1.330000e+001 7.999960e+000
      vertex   -1.400000e+001 1.800000e+001 4.000000e+000
    endloop
  endfacet
  facet normal 1.000000e+000 0.000000e+000 0.000000e+000
    outer loop
      vertex   -1.400000e+001 1.800000e+001 4.000000e+000
      vertex   -1.400000e+001 1.330000e+001 7.999960e+000
      vertex   -1.400000e+001 1.000000e+001 7.999960e+000
    endloop
  endfacet
  facet normal 1.000000e+000 0.000000e+000 -0.000000e+000
    outer loop
      vertex   -1.400000e+001 5.000000e+000 4.000000e+000
      vertex   -1.400000e+001 1.000000e+001 7.999960e+000
      vertex   -1.400000e+001 5.000000e+000 8.000000e+000
    endloop
  endfacet
  facet normal 1.000000e+000 0.000000e+000 -0.000000e+000
    outer loop
      vertex   -1.400000e+001 5.000000e+000 4.000000e+000
      vertex   -1.400000e+001 1.800000e+001 4.000000e+000
      vertex   -1.400000e+001 1.000000e+001 7.999960e+000
    endloop
  endfacet
  facet normal 1.000000e+000 -0.000000e+000 0.000000e+000
    outer loop
      vertex   -1.400000e+001 5.000000e+000 4.000000e+000
      vertex   -1.400000e+001 1.800000e+001 1.000000e+000
      vertex   -1.400000e+001 1.800000e+001 4.000000e+000
    endloop
  endfacet
  facet normal 1.000000e+000 -0.000000e+000 0.000000e+000
    outer loop
      vertex   -1.400000e+001 5.000000e+000 4.000000e+000
      vertex   -1.400000e+001 5.000000e+000 1.000000e+000
      vertex   -1.400000e+001 1.800000e+001 1.000000e+000
    endloop
  endfacet
  facet normal 1.000000e+000 0.000000e+000 -0.000000e+000
    outer loop
      vertex   -1.400000e+001 1.000000e+001 7.999960e+000
      vertex   -1.400000e+001 1.000000e+001 8.000000e+000
      vertex   -1.400000e+001 5.000000e+000 8.000000e+000
    endloop
  endfacet
  facet normal 0.000000e+000 -0.000000e+000 -1.000000e+000
    outer loop
      vertex   -1.365468e+001 1.300000e+001 8.000001e+000
      vertex   -1.350000e+001 1.300000e+001 8.000001e+000
      vertex   -1.365468e+001 1.000000e+001 8.000001e+000
    endloop
  endfacet
  facet normal 0.000000e+000 0.000000e+000 -1.000000e+000
    outer loop
      vertex   -1.365468e+001 1.000000e+001 8.000001e+000
      vertex   -1.350000e+001 1.300000e+001 8.000001e+000
      vertex   -1.350000e+001 1.000000e+001 8.000001e+000
    endloop
  endfacet
  facet normal 1.000000e+000 0.000000e+000 -0.000000e+000
    outer loop
      vertex   -6.300000e+000 1.300000e+001 8.000000e+000
      vertex   -6.300000e+000 1.300000e+001 8.500000e+000
      vertex   -6.300000e+000 1.000000e+001 8.000000e+000
    endloop
  endfacet
  facet normal 1.000000e+000 0.000000e+000 -0.000000e+000
    outer loop
      vertex   -6.300000e+000 1.000000e+001 8.000000e+000
      vertex   -6.300000e+000 1.300000e+001 8.500000e+000
      vertex   -6.300000e+000 1.000000e+001 8.500000e+000
    endloop
  endfacet
  facet normal 0.000000e+000 1.000000e+000 0.000000e+000
    outer loop
      vertex   -7.600000e+000 1.300000e+001 8.500000e+000
      vertex   -7.337239e+000 1.300000e+001 8.282762e+000
      vertex   -7.800000e+000 1.300000e+001 8.300000e+000
    endloop
  endfacet
  facet normal 0.000000e+000 1.000000e+000 0.000000e+000
    outer loop
      vertex   -7.600000e+000 1.300000e+001 8.500000e+000
      vertex   -6.937441e+000 1.300000e+001 8.282762e+000
      vertex   -7.337239e+000 1.300000e+001 8.282762e+000
    endloop
  endfacet
  facet normal -0.000000e+000 1.000000e+000 0.000000e+000
    outer loop
      vertex   -7.600000e+000 1.300000e+001 8.500000e+000
      vertex   -6.300000e+000 1.300000e+001 8.500000e+000
      vertex   -6.937441e+000 1.300000e+001 8.282762e+000
    endloop
  endfacet
  facet normal -0.000000e+000 1.000000e+000 0.000000e+000
    outer loop
      vertex   -6.937441e+000 1.300000e+001 8.282762e+000
      vertex   -6.300000e+000 1.300000e+001 8.500000e+000
      vertex   -6.300000e+000 1.300000e+001 8.000000e+000
    endloop
  endfacet
  facet normal -0.000000e+000 1.000000e+000 0.000000e+000
    outer loop
      vertex   -6.937441e+000 1.300000e+001 8.000001e+000
      vertex   -6.937441e+000 1.300000e+001 8.282762e+000
      vertex   -6.300000e+000 1.300000e+001 8.000000e+000
    endloop
  endfacet
  facet normal 0.000000e+000 1.000000e+000 0.000000e+000
    outer loop
      vertex   -7.337239e+000 1.300000e+001 8.282762e+000
      vertex   -7.620000e+000 1.300000e+001 8.000001e+000
      vertex   -7.800000e+000 1.300000e+001 8.300000e+000
    endloop
  endfacet
  facet normal 0.000000e+000 1.000000e+000 0.000000e+000
    outer loop
      vertex   -7.800000e+000 1.300000e+001 8.300000e+000
      vertex   -7.620000e+000 1.300000e+001 8.000001e+000
      vertex   -7.800000e+000 1.300000e+001 8.000000e+000
    endloop
  endfacet
  facet normal -1.000000e+000 0.000000e+000 7.105418e-015
    outer loop
      vertex   -1.500000e+001 1.000000e+001 8.000000e+000
      vertex   -1.500000e+001 1.000000e+001 8.500001e+000
      vertex   -1.500000e+001 1.300000e+001 8.000000e+000
    endloop
  endfacet
  facet normal -1.000000e+000 -1.184238e-015 0.000000e+000
    outer loop
      vertex   -1.500000e+001 1.300000e+001 8.000000e+000
      vertex   -1.500000e+001 1.000000e+001 8.500001e+000
      vertex   -1.500000e+001 1.300000e+001 8.500001e+000
    endloop
  endfacet
  facet normal 0.000000e+000 0.000000e+000 1.000000e+000
    outer loop
      vertex   -1.370000e+001 1.300000e+001 8.500001e+000
      vertex   -1.500000e+001 1.300000e+001 8.500001e+000
      vertex   -1.370000e+001 1.000000e+001 8.500001e+000
    endloop
  endfacet
  facet normal 0.000000e+000 0.000000e+000 1.000000e+000
    outer loop
      vertex   -1.370000e+001 1.000000e+001 8.500001e+000
      vertex   -1.500000e+001 1.300000e+001 8.500001e+000
      vertex   -1.500000e+001 1.000000e+001 8.500001e+000
    endloop
  endfacet
  facet normal -1.000000e+000 0.000000e+000 -0.000000e+000
    outer loop
      vertex   -7.800000e+000 1.000000e+001 8.300000e+000
      vertex   -7.800000e+000 1.300000e+001 8.300000e+000
      vertex   -7.800000e+000 1.000000e+001 8.000000e+000
    endloop
  endfacet
  facet normal -1.000000e+000 0.000000e+000 0.000000e+000
    outer loop
      vertex   -7.800000e+000 1.000000e+001 8.000000e+000
      vertex   -7.800000e+000 1.300000e+001 8.300000e+000
      vertex   -7.800000e+000 1.300000e+001 8.000000e+000
    endloop
  endfacet
  facet normal 0.000000e+000 1.000000e+000 -0.000000e+000
    outer loop
      vertex   -1.350000e+001 1.300000e+001 8.300001e+000
      vertex   -1.393744e+001 1.300000e+001 8.282762e+000
      vertex   -1.370000e+001 1.300000e+001 8.500001e+000
    endloop
  endfacet
  facet normal 0.000000e+000 1.000000e+000 0.000000e+000
    outer loop
      vertex   -1.350000e+001 1.300000e+001 8.300001e+000
      vertex   -1.365468e+001 1.300000e+001 8.000001e+000
      vertex   -1.393744e+001 1.300000e+001 8.282762e+000
    endloop
  endfacet
  facet normal 0.000000e+000 1.000000e+000 0.000000e+000
    outer loop
      vertex   -1.350000e+001 1.300000e+001 8.300001e+000
      vertex   -1.350000e+001 1.300000e+001 8.000001e+000
      vertex   -1.365468e+001 1.300000e+001 8.000001e+000
    endloop
  endfacet
  facet normal 0.000000e+000 1.000000e+000 -0.000000e+000
    outer loop
      vertex   -1.393744e+001 1.300000e+001 8.282762e+000
      vertex   -1.433724e+001 1.300000e+001 8.282762e+000
      vertex   -1.370000e+001 1.300000e+001 8.500001e+000
    endloop
  endfacet
  facet normal 0.000000e+000 1.000000e+000 0.000000e+000
    outer loop
      vertex   -1.370000e+001 1.300000e+001 8.500001e+000
      vertex   -1.433724e+001 1.300000e+001 8.282762e+000
      vertex   -1.500000e+001 1.300000e+001 8.500001e+000
    endloop
  endfacet
  facet normal 0.000000e+000 1.000000e+000 0.000000e+000
    outer loop
      vertex   -1.500000e+001 1.300000e+001 8.500001e+000
      vertex   -1.433724e+001 1.300000e+001 8.282762e+000
      vertex   -1.500000e+001 1.300000e+001 8.000000e+000
    endloop
  endfacet
  facet normal -0.000000e+000 1.000000e+000 0.000000e+000
    outer loop
      vertex   -1.500000e+001 1.300000e+001 8.000000e+000
      vertex   -1.433724e+001 1.300000e+001 8.282762e+000
      vertex   -1.433724e+001 1.300000e+001 8.000001e+000
    endloop
  endfacet
  facet normal -0.000000e+000 1.000000e+000 0.000000e+000
    outer loop
      vertex   -1.310000e+001 7.950000e+000 1.000000e+000
      vertex   -8.200000e+000 7.950000e+000 1.000000e+000
      vertex   -1.310000e+001 7.950000e+000 -1.110223e-015
    endloop
  endfacet
  facet normal -1.812609e-016 1.000000e+000 8.881784e-016
    outer loop
      vertex   -1.310000e+001 7.950000e+000 -1.110223e-015
      vertex   -8.200000e+000 7.950000e+000 1.000000e+000
      vertex   -8.200000e+000 7.950000e+000 -1.110223e-015
    endloop
  endfacet
  facet normal -0.000000e+000 1.000000e+000 0.000000e+000
    outer loop
      vertex   -1.400000e+001 5.000000e+000 4.000000e+000
      vertex   -7.300000e+000 5.000000e+000 4.000000e+000
      vertex   -1.400000e+001 5.000000e+000 1.000000e+000
    endloop
  endfacet
  facet normal -0.000000e+000 1.000000e+000 0.000000e+000
    outer loop
      vertex   -1.400000e+001 5.000000e+000 1.000000e+000
      vertex   -7.300000e+000 5.000000e+000 4.000000e+000
      vertex   -7.300000e+000 5.000000e+000 1.000000e+000
    endloop
  endfacet
  facet normal 1.000000e+000 0.000000e+000 0.000000e+000
    outer loop
      vertex   -5.300000e+000 1.800000e+001 8.000000e+000
      vertex   -5.300000e+000 5.000000e+000 8.000000e+000
      vertex   -5.300000e+000 1.800000e+001 4.000000e+000
    endloop
  endfacet
  facet normal 1.000000e+000 0.000000e+000 0.000000e+000
    outer loop
      vertex   -5.300000e+000 1.800000e+001 4.000000e+000
      vertex   -5.300000e+000 5.000000e+000 8.000000e+000
      vertex   -5.300000e+000 5.000000e+000 4.000000e+000
    endloop
  endfacet
  facet normal 0.000000e+000 -0.000000e+000 1.000000e+000
    outer loop
      vertex   -1.400000e+001 1.330000e+001 8.000000e+000
      vertex   -1.400000e+001 1.800000e+001 8.000000e+000
      vertex   -1.433176e+001 1.330000e+001 8.000000e+000
    endloop
  endfacet
  facet normal 0.000000e+000 -0.000000e+000 1.000000e+000
    outer loop
      vertex   -1.433176e+001 1.330000e+001 8.000000e+000
      vertex   -1.400000e+001 1.800000e+001 8.000000e+000
      vertex   -1.500000e+001 1.300000e+001 8.000000e+000
    endloop
  endfacet
  facet normal -9.892723e-007 2.203558e-006 1.000000e+000
    outer loop
      vertex   -1.433724e+001 1.300000e+001 8.000001e+000
      vertex   -1.433176e+001 1.330000e+001 8.000000e+000
      vertex   -1.500000e+001 1.300000e+001 8.000000e+000
    endloop
  endfacet
  facet normal 1.197495e-004 1.196183e-015 1.000000e+000
    outer loop
      vertex   -1.433724e+001 1.300000e+001 8.000001e+000
      vertex   -1.433176e+001 1.300000e+001 8.000000e+000
      vertex   -1.433176e+001 1.330000e+001 8.000000e+000
    endloop
  endfacet
  facet normal 0.000000e+000 0.000000e+000 1.000000e+000
    outer loop
      vertex   -1.400000e+001 1.800000e+001 8.000000e+000
      vertex   -1.600000e+001 1.800000e+001 8.000000e+000
      vertex   -1.500000e+001 1.300000e+001 8.000000e+000
    endloop
  endfacet
  facet normal 0.000000e+000 0.000000e+000 1.000000e+000
    outer loop
      vertex   -1.500000e+001 1.300000e+001 8.000000e+000
      vertex   -1.600000e+001 1.800000e+001 8.000000e+000
      vertex   -1.600000e+001 5.000000e+000 8.000000e+000
    endloop
  endfacet
  facet normal -0.000000e+000 0.000000e+000 1.000000e+000
    outer loop
      vertex   -1.500000e+001 1.000000e+001 8.000000e+000
      vertex   -1.600000e+001 5.000000e+000 8.000000e+000
      vertex   -1.400000e+001 5.000000e+000 8.000000e+000
    endloop
  endfacet
  facet normal 1.944173e-006 -0.000000e+000 1.000000e+000
    outer loop
      vertex   -1.433724e+001 1.000000e+001 8.000001e+000
      vertex   -1.400000e+001 5.000000e+000 8.000000e+000
      vertex   -1.400000e+001 1.000000e+001 8.000000e+000
    endloop
  endfacet
  facet normal -9.892723e-007 -1.978545e-007 1.000000e+000
    outer loop
      vertex   -1.433724e+001 1.000000e+001 8.000001e+000
      vertex   -1.500000e+001 1.000000e+001 8.000000e+000
      vertex   -1.400000e+001 5.000000e+000 8.000000e+000
    endloop
  endfacet
  facet normal -0.000000e+000 0.000000e+000 1.000000e+000
    outer loop
      vertex   -1.500000e+001 1.300000e+001 8.000000e+000
      vertex   -1.600000e+001 5.000000e+000 8.000000e+000
      vertex   -1.500000e+001 1.000000e+001 8.000000e+000
    endloop
  endfacet
  facet normal 0.000000e+000 -1.000000e+000 0.000000e+000
    outer loop
      vertex   -7.300000e+000 5.000000e+000 4.000000e+000
      vertex   -5.300000e+000 5.000000e+000 4.000000e+000
      vertex   -7.300000e+000 5.000000e+000 8.000000e+000
    endloop
  endfacet
  facet normal 0.000000e+000 -1.000000e+000 0.000000e+000
    outer loop
      vertex   -7.300000e+000 5.000000e+000 8.000000e+000
      vertex   -5.300000e+000 5.000000e+000 4.000000e+000
      vertex   -5.300000e+000 5.000000e+000 8.000000e+000
    endloop
  endfacet
  facet normal 0.000000e+000 1.000000e+000 -0.000000e+000
    outer loop
      vertex   -5.300000e+000 1.800000e+001 4.000000e+000
      vertex   -7.300000e+000 1.800000e+001 4.000000e+000
      vertex   -5.300000e+000 1.800000e+001 8.000000e+000
    endloop
  endfacet
  facet normal 0.000000e+000 1.000000e+000 -0.000000e+000
    outer loop
      vertex   -5.300000e+000 1.800000e+001 8.000000e+000
      vertex   -7.300000e+000 1.800000e+001 4.000000e+000
      vertex   -7.300000e+000 1.800000e+001 8.000000e+000
    endloop
  endfacet
  facet normal -1.000000e+000 0.000000e+000 -0.000000e+000
    outer loop
      vertex   -1.600000e+001 5.000000e+000 8.000000e+000
      vertex   -1.600000e+001 1.800000e+001 8.000000e+000
      vertex   -1.600000e+001 5.000000e+000 4.000000e+000
    endloop
  endfacet
  facet normal -1.000000e+000 0.000000e+000 0.000000e+000
    outer loop
      vertex   -1.600000e+001 5.000000e+000 4.000000e+000
      vertex   -1.600000e+001 1.800000e+001 8.000000e+000
      vertex   -1.600000e+001 1.800000e+001 4.000000e+000
    endloop
  endfacet
  facet normal 0.000000e+000 1.000000e+000 -0.000000e+000
    outer loop
      vertex   -1.400000e+001 1.800000e+001 4.000000e+000
      vertex   -1.600000e+001 1.800000e+001 4.000000e+000
      vertex   -1.400000e+001 1.800000e+001 8.000000e+000
    endloop
  endfacet
  facet normal 0.000000e+000 1.000000e+000 -0.000000e+000
    outer loop
      vertex   -1.400000e+001 1.800000e+001 8.000000e+000
      vertex   -1.600000e+001 1.800000e+001 4.000000e+000
      vertex   -1.600000e+001 1.800000e+001 8.000000e+000
    endloop
  endfacet
  facet normal 0.000000e+000 -1.000000e+000 0.000000e+000
    outer loop
      vertex   -1.600000e+001 5.000000e+000 4.000000e+000
      vertex   -1.400000e+001 5.000000e+000 4.000000e+000
      vertex   -1.600000e+001 5.000000e+000 8.000000e+000
    endloop
  endfacet
  facet normal 0.000000e+000 -1.000000e+000 0.000000e+000
    outer loop
      vertex   -1.600000e+001 5.000000e+000 8.000000e+000
      vertex   -1.400000e+001 5.000000e+000 4.000000e+000
      vertex   -1.400000e+001 5.000000e+000 8.000000e+000
    endloop
  endfacet
  facet normal -1.000000e+000 0.000000e+000 0.000000e+000
    outer loop
      vertex   -7.300000e+000 1.800000e+001 1.000000e+000
      vertex   -7.300000e+000 5.000000e+000 1.000000e+000
      vertex   -7.300000e+000 1.800000e+001 4.000000e+000
    endloop
  endfacet
  facet normal -1.000000e+000 -0.000000e+000 0.000000e+000
    outer loop
      vertex   -7.300000e+000 1.800000e+001 4.000000e+000
      vertex   -7.300000e+000 5.000000e+000 1.000000e+000
      vertex   -7.300000e+000 5.000000e+000 4.000000e+000
    endloop
  endfacet
  facet normal -1.000000e+000 -0.000000e+000 0.000000e+000
    outer loop
      vertex   -7.300000e+000 1.800000e+001 8.000000e+000
      vertex   -7.300000e+000 5.000000e+000 4.000000e+000
      vertex   -7.300000e+000 5.000000e+000 8.000000e+000
    endloop
  endfacet
  facet normal -1.000000e+000 -0.000000e+000 -0.000000e+000
    outer loop
      vertex   -7.300000e+000 1.800000e+001 8.000000e+000
      vertex   -7.300000e+000 1.800000e+001 4.000000e+000
      vertex   -7.300000e+000 5.000000e+000 4.000000e+000
    endloop
  endfacet
  facet normal -0.000000e+000 -1.000000e+000 -0.000000e+000
    outer loop
      vertex   -7.300000e+000 1.800000e+001 4.000000e+000
      vertex   -1.400000e+001 1.800000e+001 4.000000e+000
      vertex   -7.300000e+000 1.800000e+001 1.000000e+000
    endloop
  endfacet
  facet normal -0.000000e+000 -1.000000e+000 -0.000000e+000
    outer loop
      vertex   -7.300000e+000 1.800000e+001 1.000000e+000
      vertex   -1.400000e+001 1.800000e+001 4.000000e+000
      vertex   -1.400000e+001 1.800000e+001 1.000000e+000
    endloop
  endfacet
  facet normal 0.000000e+000 0.000000e+000 1.000000e+000
    outer loop
      vertex   -7.300000e+000 5.000000e+000 1.000000e+000
      vertex   -1.310000e+001 7.950000e+000 1.000000e+000
      vertex   -1.400000e+001 5.000000e+000 1.000000e+000
    endloop
  endfacet
  facet normal 0.000000e+000 0.000000e+000 1.000000e+000
    outer loop
      vertex   -7.300000e+000 5.000000e+000 1.000000e+000
      vertex   -8.200000e+000 7.950000e+000 1.000000e+000
      vertex   -1.310000e+001 7.950000e+000 1.000000e+000
    endloop
  endfacet
  facet normal 0.000000e+000 0.000000e+000 1.000000e+000
    outer loop
      vertex   -7.300000e+000 5.000000e+000 1.000000e+000
      vertex   -8.200000e+000 1.505000e+001 1.000000e+000
      vertex   -8.200000e+000 7.950000e+000 1.000000e+000
    endloop
  endfacet
  facet normal 0.000000e+000 -0.000000e+000 1.000000e+000
    outer loop
      vertex   -7.300000e+000 5.000000e+000 1.000000e+000
      vertex   -7.300000e+000 1.800000e+001 1.000000e+000
      vertex   -8.200000e+000 1.505000e+001 1.000000e+000
    endloop
  endfacet
  facet normal 0.000000e+000 -0.000000e+000 1.000000e+000
    outer loop
      vertex   -8.200000e+000 1.505000e+001 1.000000e+000
      vertex   -7.300000e+000 1.800000e+001 1.000000e+000
      vertex   -1.400000e+001 1.800000e+001 1.000000e+000
    endloop
  endfacet
  facet normal 0.000000e+000 0.000000e+000 1.000000e+000
    outer loop
      vertex   -1.310000e+001 1.505000e+001 1.000000e+000
      vertex   -1.400000e+001 1.800000e+001 1.000000e+000
      vertex   -1.400000e+001 5.000000e+000 1.000000e+000
    endloop
  endfacet
  facet normal 0.000000e+000 -0.000000e+000 1.000000e+000
    outer loop
      vertex   -1.310000e+001 7.950000e+000 1.000000e+000
      vertex   -1.310000e+001 1.505000e+001 1.000000e+000
      vertex   -1.400000e+001 5.000000e+000 1.000000e+000
    endloop
  endfacet
  facet normal 0.000000e+000 0.000000e+000 1.000000e+000
    outer loop
      vertex   -8.200000e+000 1.505000e+001 1.000000e+000
      vertex   -1.400000e+001 1.800000e+001 1.000000e+000
      vertex   -1.310000e+001 1.505000e+001 1.000000e+000
    endloop
  endfacet
  facet normal -1.000000e+000 0.000000e+000 -0.000000e+000
    outer loop
      vertex   -8.200000e+000 7.950000e+000 1.000000e+000
      vertex   -8.200000e+000 1.505000e+001 1.000000e+000
      vertex   -8.200000e+000 7.950000e+000 -1.110223e-015
    endloop
  endfacet
  facet normal -1.000000e+000 0.000000e+000 -0.000000e+000
    outer loop
      vertex   -8.200000e+000 7.950000e+000 -1.110223e-015
      vertex   -8.200000e+000 1.505000e+001 1.000000e+000
      vertex   -8.200000e+000 1.505000e+001 -1.110223e-015
    endloop
  endfacet
  facet normal 0.000000e+000 -1.000000e+000 1.776357e-015
    outer loop
      vertex   -8.200000e+000 1.505000e+001 1.000000e+000
      vertex   -1.310000e+001 1.505000e+001 1.000000e+000
      vertex   -8.200000e+000 1.505000e+001 -1.110223e-015
    endloop
  endfacet
  facet normal -3.625218e-016 -1.000000e+000 -0.000000e+000
    outer loop
      vertex   -8.200000e+000 1.505000e+001 -1.110223e-015
      vertex   -1.310000e+001 1.505000e+001 1.000000e+000
      vertex   -1.310000e+001 1.505000e+001 -1.110223e-015
    endloop
  endfacet
  facet normal 1.000000e+000 0.000000e+000 0.000000e+000
    outer loop
      vertex   -1.310000e+001 1.505000e+001 1.000000e+000
      vertex   -1.310000e+001 7.950000e+000 1.000000e+000
      vertex   -1.310000e+001 1.505000e+001 -1.110223e-015
    endloop
  endfacet
  facet normal 1.000000e+000 0.000000e+000 0.000000e+000
    outer loop
      vertex   -1.310000e+001 1.505000e+001 -1.110223e-015
      vertex   -1.310000e+001 7.950000e+000 1.000000e+000
      vertex   -1.310000e+001 7.950000e+000 -1.110223e-015
    endloop
  endfacet
  facet normal 0.000000e+000 1.000000e+000 -0.000000e+000
    outer loop
      vertex   4.440892e-015 2.300000e+001 -1.224647e-015
      vertex   -2.000000e+001 2.300000e+001 -1.224647e-015
      vertex   4.440892e-015 2.300000e+001 4.000000e+000
    endloop
  endfacet
  facet normal 0.000000e+000 1.000000e+000 -0.000000e+000
    outer loop
      vertex   4.440892e-015 2.300000e+001 4.000000e+000
      vertex   -2.000000e+001 2.300000e+001 -1.224647e-015
      vertex   -2.000000e+001 2.300000e+001 4.000000e+000
    endloop
  endfacet
  facet normal 1.000000e+000 0.000000e+000 -0.000000e+000
    outer loop
      vertex   4.440892e-015 -1.110223e-015 -3.612708e-015
      vertex   4.440892e-015 2.300000e+001 -1.224647e-015
      vertex   4.440892e-015 -1.110223e-015 4.000000e+000
    endloop
  endfacet
  facet normal 1.000000e+000 -0.000000e+000 0.000000e+000
    outer loop
      vertex   4.440892e-015 -1.110223e-015 4.000000e+000
      vertex   4.440892e-015 2.300000e+001 -1.224647e-015
      vertex   4.440892e-015 2.300000e+001 4.000000e+000
    endloop
  endfacet
  facet normal -5.551115e-017 -1.000000e+000 0.000000e+000
    outer loop
      vertex   -2.000000e+001 0.000000e+000 -1.224647e-015
      vertex   4.440892e-015 -1.110223e-015 -3.612708e-015
      vertex   -2.000000e+001 0.000000e+000 4.000000e+000
    endloop
  endfacet
  facet normal -5.551115e-017 -1.000000e+000 0.000000e+000
    outer loop
      vertex   -2.000000e+001 0.000000e+000 4.000000e+000
      vertex   4.440892e-015 -1.110223e-015 -3.612708e-015
      vertex   4.440892e-015 -1.110223e-015 4.000000e+000
    endloop
  endfacet
  facet normal -1.000000e+000 0.000000e+000 0.000000e+000
    outer loop
      vertex   -2.000000e+001 2.300000e+001 -1.224647e-015
      vertex   -2.000000e+001 0.000000e+000 -1.224647e-015
      vertex   -2.000000e+001 2.300000e+001 4.000000e+000
    endloop
  endfacet
  facet normal -1.000000e+000 -0.000000e+000 0.000000e+000
    outer loop
      vertex   -2.000000e+001 2.300000e+001 4.000000e+000
      vertex   -2.000000e+001 0.000000e+000 -1.224647e-015
      vertex   -2.000000e+001 0.000000e+000 4.000000e+000
    endloop
  endfacet
  facet normal 1.332268e-016 -1.192093e-008 1.000000e+000
    outer loop
      vertex   4.440892e-015 -1.110223e-015 4.000000e+000
      vertex   -7.300000e+000 5.000000e+000 4.000000e+000
      vertex   -2.000000e+001 0.000000e+000 4.000000e+000
    endloop
  endfacet
  facet normal 0.000000e+000 -1.192093e-008 1.000000e+000
    outer loop
      vertex   4.440892e-015 -1.110223e-015 4.000000e+000
      vertex   -5.300000e+000 5.000000e+000 4.000000e+000
      vertex   -7.300000e+000 5.000000e+000 4.000000e+000
    endloop
  endfacet
  facet normal 1.124616e-008 0.000000e+000 1.000000e+000
    outer loop
      vertex   4.440892e-015 -1.110223e-015 4.000000e+000
      vertex   -5.300000e+000 1.800000e+001 4.000000e+000
      vertex   -5.300000e+000 5.000000e+000 4.000000e+000
    endloop
  endfacet
  facet normal 1.124616e-008 -1.158494e-016 1.000000e+000
    outer loop
      vertex   4.440892e-015 -1.110223e-015 4.000000e+000
      vertex   4.440892e-015 2.300000e+001 4.000000e+000
      vertex   -5.300000e+000 1.800000e+001 4.000000e+000
    endloop
  endfacet
  facet normal 0.000000e+000 1.192093e-008 1.000000e+000
    outer loop
      vertex   -5.300000e+000 1.800000e+001 4.000000e+000
      vertex   4.440892e-015 2.300000e+001 4.000000e+000
      vertex   -7.300000e+000 1.800000e+001 4.000000e+000
    endloop
  endfacet
  facet normal 0.000000e+000 1.192093e-008 1.000000e+000
    outer loop
      vertex   -7.300000e+000 1.800000e+001 4.000000e+000
      vertex   4.440892e-015 2.300000e+001 4.000000e+000
      vertex   -2.000000e+001 2.300000e+001 4.000000e+000
    endloop
  endfacet
  facet normal 0.000000e+000 1.192093e-008 1.000000e+000
    outer loop
      vertex   -1.400000e+001 1.800000e+001 4.000000e+000
      vertex   -2.000000e+001 2.300000e+001 4.000000e+000
      vertex   -1.600000e+001 1.800000e+001 4.000000e+000
    endloop
  endfacet
  facet normal -0.000000e+000 1.192093e-008 1.000000e+000
    outer loop
      vertex   -1.400000e+001 1.800000e+001 4.000000e+000
      vertex   -7.300000e+000 1.800000e+001 4.000000e+000
      vertex   -2.000000e+001 2.300000e+001 4.000000e+000
    endloop
  endfacet
  facet normal -1.490116e-008 0.000000e+000 1.000000e+000
    outer loop
      vertex   -2.000000e+001 2.300000e+001 4.000000e+000
      vertex   -2.000000e+001 0.000000e+000 4.000000e+000
      vertex   -1.600000e+001 1.800000e+001 4.000000e+000
    endloop
  endfacet
  facet normal -1.490116e-008 0.000000e+000 1.000000e+000
    outer loop
      vertex   -1.600000e+001 1.800000e+001 4.000000e+000
      vertex   -2.000000e+001 0.000000e+000 4.000000e+000
      vertex   -1.600000e+001 5.000000e+000 4.000000e+000
    endloop
  endfacet
  facet normal 0.000000e+000 -1.192093e-008 1.000000e+000
    outer loop
      vertex   -1.600000e+001 5.000000e+000 4.000000e+000
      vertex   -2.000000e+001 0.000000e+000 4.000000e+000
      vertex   -1.400000e+001 5.000000e+000 4.000000e+000
    endloop
  endfacet
  facet normal 0.000000e+000 -1.192093e-008 1.000000e+000
    outer loop
      vertex   -1.400000e+001 5.000000e+000 4.000000e+000
      vertex   -2.000000e+001 0.000000e+000 4.000000e+000
      vertex   -7.300000e+000 5.000000e+000 4.000000e+000
    endloop
  endfacet
  facet normal 1.658316e-017 0.000000e+000 -1.000000e+000
    outer loop
      vertex   -1.310000e+001 1.505000e+001 -1.110223e-015
      vertex   -1.310000e+001 7.950000e+000 -1.110223e-015
      vertex   -2.000000e+001 0.000000e+000 -1.224647e-015
    endloop
  endfacet
  facet normal 1.658316e-017 -8.698844e-033 -1.000000e+000
    outer loop
      vertex   -2.000000e+001 2.300000e+001 -1.224647e-015
      vertex   -1.310000e+001 1.505000e+001 -1.110223e-015
      vertex   -2.000000e+001 0.000000e+000 -1.224647e-015
    endloop
  endfacet
  facet normal -5.217750e-033 -1.439293e-017 -1.000000e+000
    outer loop
      vertex   -2.000000e+001 2.300000e+001 -1.224647e-015
      vertex   -8.200000e+000 1.505000e+001 -1.110223e-015
      vertex   -1.310000e+001 1.505000e+001 -1.110223e-015
    endloop
  endfacet
  facet normal 9.860761e-033 -1.439293e-017 -1.000000e+000
    outer loop
      vertex   -2.000000e+001 2.300000e+001 -1.224647e-015
      vertex   4.440892e-015 2.300000e+001 -1.224647e-015
      vertex   -8.200000e+000 1.505000e+001 -1.110223e-015
    endloop
  endfacet
  facet normal -1.146174e-016 1.038288e-016 -1.000000e+000
    outer loop
      vertex   -8.200000e+000 1.505000e+001 -1.110223e-015
      vertex   4.440892e-015 2.300000e+001 -1.224647e-015
      vertex   4.440892e-015 -1.110223e-015 -3.612708e-015
    endloop
  endfacet
  facet normal -1.194031e-016 1.916201e-016 -1.000000e+000
    outer loop
      vertex   -8.200000e+000 7.950000e+000 -1.110223e-015
      vertex   4.440892e-015 -1.110223e-015 -3.612708e-015
      vertex   -2.000000e+001 0.000000e+000 -1.224647e-015
    endloop
  endfacet
  facet normal -2.608875e-033 1.439293e-017 -1.000000e+000
    outer loop
      vertex   -1.310000e+001 7.950000e+000 -1.110223e-015
      vertex   -8.200000e+000 7.950000e+000 -1.110223e-015
      vertex   -2.000000e+001 0.000000e+000 -1.224647e-015
    endloop
  endfacet
  facet normal -3.051811e-016 0.000000e+000 -1.000000e+000
    outer loop
      vertex   -8.200000e+000 7.950000e+000 -1.110223e-015
      vertex   -8.200000e+000 1.505000e+001 -1.110223e-015
      vertex   4.440892e-015 -1.110223e-015 -3.612708e-015
    endloop
  endfacet
endsolid
